# xmcd CD database file
#
# Track frame offsets:
#	150
#	14430
#	25775
#	38992
#	51335
#	63532
#	78569
#	87499
#	101595
#	118027
#	134120
#	146128
#	161638
#	174048
#	195250
#	204618
#	217613
#	229521
#	255374
#	269372
#	280992
#	304910
#	316892
#
# Disc length: 4384 seconds
#
# Revision: 4
# Processed by: cddbd v1.5.1PL0 Copyright (c) Steve Scherf et al.
# Submitted via: CDex 1.51
#
DISCID=46111e17
DTITLE=Various Artist - 100 More Loungin', Urban Sounds For Modern Living, Vol.2
DYEAR=1900
DGENRE=Jazz
TTITLE0=Sammy Davis jr. - The Candy Man
TTITLE1=Julie London - Fly Me To The Moon
TTITLE2=Louis Prima - Buena Sera
TTITLE3=Dooley Wilson - As Time Goes By
TTITLE4=Dean Martin - Everybody Loves Somebody
TTITLE5=Peggy Lee - Mr. Wonderful
TTITLE6=Tom Jones - It's Not Unusual
TTITLE7=Eartha Kitt - Let's Do It
TTITLE8=Morris Albert - Feelings
TTITLE9=José Feliciano - Light My Fire
TTITLE10=Shirley Bassey - Diamonds Are Forever
TTITLE11=Nat King Cole - Unforgettable
TTITLE12=Gene Kelly - Singin' In The Rain
TTITLE13=Louis Prima - Just A Gigolo
TTITLE14=Doris Day - Whatever Will Be (Que Sera)
TTITLE15=Al Martino - Volare
TTITLE16=Tammy Wynette - Stand By Your Man
TTITLE17=Sammy Davis jr. - Mr. Bojangles
TTITLE18=Dionne Warwick - I Say A Little Prayer
TTITLE19=Andy Williams - Music To Watch Girls By
TTITLE20=Joao Gilberto and Stan Getz  feat. Astrud Gilberto - The Girl From Ipanema
TTITLE21=Chris Montez - The More I See You
TTITLE22=Nancy and Frank Sinatra - Something Stupid
EXTD=
EXTT0=
EXTT1=
EXTT2=
EXTT3=
EXTT4=
EXTT5=
EXTT6=
EXTT7=
EXTT8=
EXTT9=
EXTT10=
EXTT11=
EXTT12=
EXTT13=
EXTT14=
EXTT15=
EXTT16=
EXTT17=
EXTT18=
EXTT19=
EXTT20=
EXTT21=
EXTT22=
PLAYORDER=
